<svg xmlns="http://www.w3.org/2000/svg" viewBox="0 0 100 52" fill="#ffffff" aria-hidden="true">
  <path d="M99,45.2c-0.7-2.4-2.1-3.7-4.9-3.7c-10,0-19.8-2.2-29.6-3.4c-1.1-0.1-2.3-1.1-3.2,0c-0.9,1.1-0.2,2.4,0.3,3.5c0.4,1,0.9,1.9,1.7,2.5c0.6,0.5,1.7,0.8,1.3,1.8c-0.4,0.9-1.4,0.6-2.2,0.6c-7.8,0.3-15.6,0.4-23.4,0.9C28,48,17,47.8,6.1,47.5c-1.6,0.2-3.6-1.3-4.7,1.1c-0.7,1.7,1,4.9,2.7,5.6c2.4,1.1,4.9,0.3,7.3,0.5c6.2,0.5,12.3,0.9,18.5,0.7c9.9-0.3,19.8-0.7,29.6-1.1c1.2,0,3-0.3,3.4,0.8c0.4,1.2-1.2,2.1-2.1,3c-1.6,1.5-2.2,4.9-1.1,6.2c1.2,1.3,4.2,1.1,6.2-0.5c1.8-1.5,3.8-2.8,6-3.7c3.3-1.4,6.7-2.8,9.7-4.7c1.6-1,3.2-1.7,4.9-1.9c0.1-0.1,0.3-0.1,0.4-0.2c0.2-0.1,0.4-0.1,0.7-0.2c0.1,0,0.2-0.1,0.3-0.1c0,0,0,0,0,0c0.1,0,0.2,0,0.2-0.1c2.5-1.5,5.2-2.8,8-3.3C98.7,49,99.6,47.4,99,45.2z" />
</svg>
